<mxfile host="app.diagrams.net" agent="Mozilla/5.0 (Windows NT 10.0; Win64; x64) AppleWebKit/537.36 (KHTML, like Gecko) Chrome/131.0.0.0 Safari/537.36" version="25.0.1">
  <diagram id="wMiQmU-7twhSfBF77HTU" name="Strona-2">
    <mxGraphModel dx="2074" dy="1140" grid="1" gridSize="10" guides="1" tooltips="1" connect="1" arrows="1" fold="1" page="1" pageScale="1" pageWidth="827" pageHeight="1169" math="0" shadow="0">
      <root>
        <mxCell id="0" />
        <mxCell id="1" parent="0" />
        <mxCell id="UfEFKGtw3c-eRMhv9bSF-2" value="Notification Service" style="whiteSpace=wrap;strokeWidth=2;spacingTop=0;verticalAlign=top;fontSize=17;fillColor=none;" parent="1" vertex="1">
          <mxGeometry x="338.5" y="620.5" width="190" height="208" as="geometry" />
        </mxCell>
        <mxCell id="UfEFKGtw3c-eRMhv9bSF-81" style="edgeStyle=orthogonalEdgeStyle;rounded=0;orthogonalLoop=1;jettySize=auto;html=1;entryX=0.5;entryY=1;entryDx=0;entryDy=0;fontSize=17;" parent="1" source="UfEFKGtw3c-eRMhv9bSF-3" target="UfEFKGtw3c-eRMhv9bSF-79" edge="1">
          <mxGeometry relative="1" as="geometry" />
        </mxCell>
        <mxCell id="UfEFKGtw3c-eRMhv9bSF-3" value="Scheduler Service" style="whiteSpace=wrap;strokeWidth=2;verticalAlign=top;fontSize=17;fillColor=none;" parent="1" vertex="1">
          <mxGeometry x="1170" y="295" width="517" height="200" as="geometry" />
        </mxCell>
        <mxCell id="UfEFKGtw3c-eRMhv9bSF-4" value="Social Service" style="whiteSpace=wrap;strokeWidth=2;spacingTop=0;verticalAlign=top;fontSize=17;fillColor=none;" parent="1" vertex="1">
          <mxGeometry x="200" y="310" width="480" height="230" as="geometry" />
        </mxCell>
        <mxCell id="UfEFKGtw3c-eRMhv9bSF-5" value="Wardrobe Services" style="whiteSpace=wrap;strokeWidth=2;verticalAlign=top;fontSize=17;fillColor=none;" parent="1" vertex="1">
          <mxGeometry x="1206" y="593.5" width="460" height="246.5" as="geometry" />
        </mxCell>
        <mxCell id="UfEFKGtw3c-eRMhv9bSF-7" value="Auth Service" style="whiteSpace=wrap;strokeWidth=2;spacingTop=0;verticalAlign=top;fontSize=17;fillColor=none;" parent="1" vertex="1">
          <mxGeometry x="650" y="760" width="236" height="190" as="geometry" />
        </mxCell>
        <mxCell id="UfEFKGtw3c-eRMhv9bSF-8" value="Firebase&#xa;Cloud Messaging&#xa;" style="whiteSpace=wrap;strokeWidth=2;fontSize=17;" parent="1" vertex="1">
          <mxGeometry x="307" y="1070" width="246" height="121" as="geometry" />
        </mxCell>
        <mxCell id="UfEFKGtw3c-eRMhv9bSF-9" value="Google OAuth" style="whiteSpace=wrap;strokeWidth=2;fontSize=17;" parent="1" vertex="1">
          <mxGeometry x="654" y="1070" width="228" height="121" as="geometry" />
        </mxCell>
        <mxCell id="UfEFKGtw3c-eRMhv9bSF-10" value="Mobile/Web Client" style="shape=cylinder3;boundedLbl=1;backgroundOutline=1;size=10;strokeWidth=2;whiteSpace=wrap;fontSize=17;" parent="1" vertex="1">
          <mxGeometry x="662" y="10" width="148" height="74" as="geometry" />
        </mxCell>
        <mxCell id="UfEFKGtw3c-eRMhv9bSF-13" value="API Gateway" style="whiteSpace=wrap;strokeWidth=2;fontSize=17;" parent="1" vertex="1">
          <mxGeometry x="661" y="134" width="150" height="49" as="geometry" />
        </mxCell>
        <mxCell id="UfEFKGtw3c-eRMhv9bSF-14" value="Authentication Core" style="whiteSpace=wrap;strokeWidth=2;fontSize=17;" parent="1" vertex="1">
          <mxGeometry x="666" y="789.5" width="204" height="48" as="geometry" />
        </mxCell>
        <mxCell id="UfEFKGtw3c-eRMhv9bSF-16" value="Clothing Management" style="whiteSpace=wrap;strokeWidth=2;fontSize=17;" parent="1" vertex="1">
          <mxGeometry x="1226" y="635" width="185" height="49" as="geometry" />
        </mxCell>
        <mxCell id="UfEFKGtw3c-eRMhv9bSF-17" value="Fit Management" style="whiteSpace=wrap;strokeWidth=2;fontSize=17;" parent="1" vertex="1">
          <mxGeometry x="1466" y="635" width="175" height="49" as="geometry" />
        </mxCell>
        <mxCell id="UfEFKGtw3c-eRMhv9bSF-19" value="Friend Management" style="whiteSpace=wrap;strokeWidth=2;fontSize=17;" parent="1" vertex="1">
          <mxGeometry x="223" y="345.5" width="201" height="49" as="geometry" />
        </mxCell>
        <mxCell id="UfEFKGtw3c-eRMhv9bSF-20" value="Group Management" style="whiteSpace=wrap;strokeWidth=2;fontSize=17;" parent="1" vertex="1">
          <mxGeometry x="460" y="343.5" width="199" height="49" as="geometry" />
        </mxCell>
        <mxCell id="UfEFKGtw3c-eRMhv9bSF-21" value="Outfit Scheduler" style="whiteSpace=wrap;strokeWidth=2;fontSize=17;" parent="1" vertex="1">
          <mxGeometry x="1206" y="328.5" width="178" height="48" as="geometry" />
        </mxCell>
        <mxCell id="UfEFKGtw3c-eRMhv9bSF-22" value="Calendar Management" style="whiteSpace=wrap;strokeWidth=2;fontSize=17;" parent="1" vertex="1">
          <mxGeometry x="1434" y="328.5" width="219" height="49" as="geometry" />
        </mxCell>
        <mxCell id="UfEFKGtw3c-eRMhv9bSF-23" value="Notification Core" style="whiteSpace=wrap;strokeWidth=2;fontSize=17;" parent="1" vertex="1">
          <mxGeometry x="357.5" y="670" width="152" height="48" as="geometry" />
        </mxCell>
        <mxCell id="UfEFKGtw3c-eRMhv9bSF-25" value="Auth DB" style="shape=cylinder3;boundedLbl=1;backgroundOutline=1;size=10;strokeWidth=2;whiteSpace=wrap;fontSize=17;" parent="1" vertex="1">
          <mxGeometry x="732" y="859.5" width="72" height="61" as="geometry" />
        </mxCell>
        <mxCell id="UfEFKGtw3c-eRMhv9bSF-27" value="Wardrobe DB" style="shape=cylinder3;boundedLbl=1;backgroundOutline=1;size=10;strokeWidth=2;whiteSpace=wrap;fontSize=17;" parent="1" vertex="1">
          <mxGeometry x="1265" y="746" width="107" height="68" as="geometry" />
        </mxCell>
        <mxCell id="UfEFKGtw3c-eRMhv9bSF-28" value="Social DB" style="shape=cylinder3;boundedLbl=1;backgroundOutline=1;size=10;strokeWidth=2;whiteSpace=wrap;fontSize=17;" parent="1" vertex="1">
          <mxGeometry x="399.5" y="441.5" width="81" height="63" as="geometry" />
        </mxCell>
        <mxCell id="UfEFKGtw3c-eRMhv9bSF-29" value="Scheduler DB" style="shape=cylinder3;boundedLbl=1;backgroundOutline=1;size=10;strokeWidth=2;whiteSpace=wrap;fontSize=17;" parent="1" vertex="1">
          <mxGeometry x="1357" y="407" width="109" height="68" as="geometry" />
        </mxCell>
        <mxCell id="UfEFKGtw3c-eRMhv9bSF-30" value="Notification DB" style="shape=cylinder3;boundedLbl=1;backgroundOutline=1;size=10;strokeWidth=2;whiteSpace=wrap;fontSize=17;" parent="1" vertex="1">
          <mxGeometry x="372" y="740" width="123" height="71" as="geometry" />
        </mxCell>
        <mxCell id="UfEFKGtw3c-eRMhv9bSF-31" value="File Storage" style="shape=cylinder3;boundedLbl=1;backgroundOutline=1;size=10;strokeWidth=2;whiteSpace=wrap;fontSize=17;" parent="1" vertex="1">
          <mxGeometry x="1503.5" y="747" width="100" height="67" as="geometry" />
        </mxCell>
        <mxCell id="UfEFKGtw3c-eRMhv9bSF-32" value="" style="curved=1;startArrow=none;endArrow=block;exitX=0.5;exitY=1;entryX=0.5;entryY=0;rounded=0;fontSize=17;" parent="1" source="UfEFKGtw3c-eRMhv9bSF-10" target="UfEFKGtw3c-eRMhv9bSF-13" edge="1">
          <mxGeometry relative="1" as="geometry">
            <Array as="points" />
          </mxGeometry>
        </mxCell>
        <mxCell id="UfEFKGtw3c-eRMhv9bSF-34" value="" style="curved=1;startArrow=none;endArrow=block;exitX=0.5;exitY=1;entryX=0.5;entryY=0;rounded=0;entryDx=0;entryDy=0;exitDx=0;exitDy=0;endFill=1;fontSize=17;" parent="1" source="UfEFKGtw3c-eRMhv9bSF-7" target="UfEFKGtw3c-eRMhv9bSF-9" edge="1">
          <mxGeometry relative="1" as="geometry">
            <Array as="points" />
            <mxPoint x="1818" y="1066" as="targetPoint" />
          </mxGeometry>
        </mxCell>
        <mxCell id="UfEFKGtw3c-eRMhv9bSF-43" value="" style="curved=1;startArrow=none;endArrow=block;exitX=0.5;exitY=1;entryX=0.5;entryY=0;rounded=0;exitDx=0;exitDy=0;entryDx=0;entryDy=0;endFill=1;fontSize=17;" parent="1" source="UfEFKGtw3c-eRMhv9bSF-2" target="UfEFKGtw3c-eRMhv9bSF-8" edge="1">
          <mxGeometry relative="1" as="geometry">
            <Array as="points" />
            <mxPoint x="521.5" y="1048" as="targetPoint" />
          </mxGeometry>
        </mxCell>
        <mxCell id="UfEFKGtw3c-eRMhv9bSF-44" value="" style="curved=1;startArrow=none;endArrow=block;rounded=0;exitX=0.25;exitY=1;exitDx=0;exitDy=0;fontSize=17;" parent="1" source="UfEFKGtw3c-eRMhv9bSF-6" target="UfEFKGtw3c-eRMhv9bSF-7" edge="1">
          <mxGeometry relative="1" as="geometry">
            <Array as="points" />
          </mxGeometry>
        </mxCell>
        <mxCell id="UfEFKGtw3c-eRMhv9bSF-45" value="" style="curved=1;startArrow=none;endArrow=block;rounded=0;fontSize=17;" parent="1" source="UfEFKGtw3c-eRMhv9bSF-13" target="UfEFKGtw3c-eRMhv9bSF-6" edge="1">
          <mxGeometry relative="1" as="geometry">
            <Array as="points" />
          </mxGeometry>
        </mxCell>
        <mxCell id="UfEFKGtw3c-eRMhv9bSF-46" value="" style="curved=1;startArrow=none;endArrow=block;rounded=0;fontSize=17;" parent="1" source="UfEFKGtw3c-eRMhv9bSF-13" target="UfEFKGtw3c-eRMhv9bSF-5" edge="1">
          <mxGeometry relative="1" as="geometry">
            <Array as="points" />
          </mxGeometry>
        </mxCell>
        <mxCell id="UfEFKGtw3c-eRMhv9bSF-47" value="" style="curved=1;startArrow=none;endArrow=block;rounded=0;fontSize=17;" parent="1" source="UfEFKGtw3c-eRMhv9bSF-13" target="UfEFKGtw3c-eRMhv9bSF-4" edge="1">
          <mxGeometry relative="1" as="geometry">
            <Array as="points" />
          </mxGeometry>
        </mxCell>
        <mxCell id="UfEFKGtw3c-eRMhv9bSF-48" value="" style="curved=1;startArrow=none;endArrow=block;rounded=0;fontSize=17;" parent="1" source="UfEFKGtw3c-eRMhv9bSF-13" target="UfEFKGtw3c-eRMhv9bSF-3" edge="1">
          <mxGeometry relative="1" as="geometry">
            <Array as="points" />
          </mxGeometry>
        </mxCell>
        <mxCell id="UfEFKGtw3c-eRMhv9bSF-50" value="" style="curved=1;startArrow=none;endArrow=block;rounded=0;fontSize=17;" parent="1" source="UfEFKGtw3c-eRMhv9bSF-4" target="UfEFKGtw3c-eRMhv9bSF-2" edge="1">
          <mxGeometry relative="1" as="geometry">
            <Array as="points" />
          </mxGeometry>
        </mxCell>
        <mxCell id="UfEFKGtw3c-eRMhv9bSF-52" value="" style="curved=1;startArrow=none;endArrow=block;rounded=0;fontSize=17;" parent="1" source="UfEFKGtw3c-eRMhv9bSF-5" target="UfEFKGtw3c-eRMhv9bSF-2" edge="1">
          <mxGeometry relative="1" as="geometry">
            <Array as="points" />
          </mxGeometry>
        </mxCell>
        <mxCell id="UfEFKGtw3c-eRMhv9bSF-53" value="" style="curved=1;startArrow=none;endArrow=block;rounded=0;fontSize=17;" parent="1" source="UfEFKGtw3c-eRMhv9bSF-4" target="UfEFKGtw3c-eRMhv9bSF-7" edge="1">
          <mxGeometry relative="1" as="geometry">
            <Array as="points" />
          </mxGeometry>
        </mxCell>
        <mxCell id="UfEFKGtw3c-eRMhv9bSF-54" value="" style="curved=1;startArrow=none;endArrow=block;rounded=0;fontSize=17;" parent="1" source="UfEFKGtw3c-eRMhv9bSF-4" target="UfEFKGtw3c-eRMhv9bSF-6" edge="1">
          <mxGeometry relative="1" as="geometry">
            <Array as="points" />
          </mxGeometry>
        </mxCell>
        <mxCell id="UfEFKGtw3c-eRMhv9bSF-55" value="" style="curved=1;startArrow=none;endArrow=block;rounded=0;fontSize=17;" parent="1" source="UfEFKGtw3c-eRMhv9bSF-5" target="UfEFKGtw3c-eRMhv9bSF-7" edge="1">
          <mxGeometry relative="1" as="geometry">
            <Array as="points" />
          </mxGeometry>
        </mxCell>
        <mxCell id="UfEFKGtw3c-eRMhv9bSF-57" value="" style="curved=1;startArrow=none;endArrow=block;rounded=0;fontSize=17;" parent="1" source="UfEFKGtw3c-eRMhv9bSF-3" target="UfEFKGtw3c-eRMhv9bSF-7" edge="1">
          <mxGeometry relative="1" as="geometry">
            <Array as="points" />
          </mxGeometry>
        </mxCell>
        <mxCell id="UfEFKGtw3c-eRMhv9bSF-58" value="" style="curved=1;startArrow=none;endArrow=block;rounded=0;fontSize=17;" parent="1" source="UfEFKGtw3c-eRMhv9bSF-3" target="UfEFKGtw3c-eRMhv9bSF-6" edge="1">
          <mxGeometry relative="1" as="geometry">
            <Array as="points" />
          </mxGeometry>
        </mxCell>
        <mxCell id="UfEFKGtw3c-eRMhv9bSF-6" value="Profile Service" style="whiteSpace=wrap;strokeWidth=2;spacingTop=0;verticalAlign=top;fontSize=17;fillColor=none;" parent="1" vertex="1">
          <mxGeometry x="770" y="425" width="240" height="210" as="geometry" />
        </mxCell>
        <mxCell id="UfEFKGtw3c-eRMhv9bSF-15" value="Profile Management" style="whiteSpace=wrap;strokeWidth=2;fontSize=17;" parent="1" vertex="1">
          <mxGeometry x="791" y="459.5" width="203" height="49" as="geometry" />
        </mxCell>
        <mxCell id="UfEFKGtw3c-eRMhv9bSF-26" value="Profile DB" style="shape=cylinder3;boundedLbl=1;backgroundOutline=1;size=10;strokeWidth=2;whiteSpace=wrap;fontSize=17;" parent="1" vertex="1">
          <mxGeometry x="847" y="539" width="86" height="64" as="geometry" />
        </mxCell>
        <mxCell id="UfEFKGtw3c-eRMhv9bSF-62" style="edgeStyle=orthogonalEdgeStyle;rounded=0;orthogonalLoop=1;jettySize=auto;html=1;exitX=0.5;exitY=1;exitDx=0;exitDy=0;entryX=0.5;entryY=0;entryDx=0;entryDy=0;entryPerimeter=0;endArrow=none;endFill=0;fontSize=17;" parent="1" source="UfEFKGtw3c-eRMhv9bSF-16" target="UfEFKGtw3c-eRMhv9bSF-27" edge="1">
          <mxGeometry relative="1" as="geometry" />
        </mxCell>
        <mxCell id="UfEFKGtw3c-eRMhv9bSF-63" style="edgeStyle=orthogonalEdgeStyle;rounded=0;orthogonalLoop=1;jettySize=auto;html=1;exitX=0.25;exitY=1;exitDx=0;exitDy=0;entryX=0.855;entryY=0;entryDx=0;entryDy=2.9;entryPerimeter=0;endArrow=none;endFill=0;fontSize=17;" parent="1" source="UfEFKGtw3c-eRMhv9bSF-17" target="UfEFKGtw3c-eRMhv9bSF-27" edge="1">
          <mxGeometry relative="1" as="geometry">
            <Array as="points">
              <mxPoint x="1510" y="725" />
              <mxPoint x="1357" y="725" />
            </Array>
          </mxGeometry>
        </mxCell>
        <mxCell id="UfEFKGtw3c-eRMhv9bSF-64" style="edgeStyle=orthogonalEdgeStyle;rounded=0;orthogonalLoop=1;jettySize=auto;html=1;exitX=0.75;exitY=1;exitDx=0;exitDy=0;entryX=0.145;entryY=0;entryDx=0;entryDy=2.9;entryPerimeter=0;endArrow=none;endFill=0;fontSize=17;" parent="1" source="UfEFKGtw3c-eRMhv9bSF-16" target="UfEFKGtw3c-eRMhv9bSF-31" edge="1">
          <mxGeometry relative="1" as="geometry" />
        </mxCell>
        <mxCell id="UfEFKGtw3c-eRMhv9bSF-65" style="edgeStyle=orthogonalEdgeStyle;rounded=0;orthogonalLoop=1;jettySize=auto;html=1;exitX=0.5;exitY=1;exitDx=0;exitDy=0;entryX=0.5;entryY=0;entryDx=0;entryDy=0;entryPerimeter=0;endArrow=none;endFill=0;fontSize=17;" parent="1" source="UfEFKGtw3c-eRMhv9bSF-17" target="UfEFKGtw3c-eRMhv9bSF-31" edge="1">
          <mxGeometry relative="1" as="geometry" />
        </mxCell>
        <mxCell id="UfEFKGtw3c-eRMhv9bSF-66" style="edgeStyle=orthogonalEdgeStyle;rounded=0;orthogonalLoop=1;jettySize=auto;html=1;exitX=0.5;exitY=1;exitDx=0;exitDy=0;entryX=0.5;entryY=0;entryDx=0;entryDy=0;entryPerimeter=0;endArrow=none;endFill=0;fontSize=17;" parent="1" source="UfEFKGtw3c-eRMhv9bSF-14" target="UfEFKGtw3c-eRMhv9bSF-25" edge="1">
          <mxGeometry relative="1" as="geometry" />
        </mxCell>
        <mxCell id="UfEFKGtw3c-eRMhv9bSF-67" style="edgeStyle=orthogonalEdgeStyle;rounded=0;orthogonalLoop=1;jettySize=auto;html=1;exitX=0.5;exitY=1;exitDx=0;exitDy=0;entryX=0.5;entryY=0;entryDx=0;entryDy=0;entryPerimeter=0;endArrow=none;endFill=0;fontSize=17;" parent="1" source="UfEFKGtw3c-eRMhv9bSF-15" target="UfEFKGtw3c-eRMhv9bSF-26" edge="1">
          <mxGeometry relative="1" as="geometry" />
        </mxCell>
        <mxCell id="UfEFKGtw3c-eRMhv9bSF-70" style="edgeStyle=orthogonalEdgeStyle;rounded=0;orthogonalLoop=1;jettySize=auto;html=1;exitX=0.25;exitY=1;exitDx=0;exitDy=0;entryX=0.855;entryY=0;entryDx=0;entryDy=2.9;entryPerimeter=0;endArrow=none;endFill=0;fontSize=17;" parent="1" source="UfEFKGtw3c-eRMhv9bSF-20" target="UfEFKGtw3c-eRMhv9bSF-28" edge="1">
          <mxGeometry relative="1" as="geometry" />
        </mxCell>
        <mxCell id="UfEFKGtw3c-eRMhv9bSF-71" style="edgeStyle=orthogonalEdgeStyle;rounded=0;orthogonalLoop=1;jettySize=auto;html=1;exitX=0.75;exitY=1;exitDx=0;exitDy=0;entryX=0.145;entryY=0;entryDx=0;entryDy=2.9;entryPerimeter=0;endArrow=none;endFill=0;fontSize=17;" parent="1" source="UfEFKGtw3c-eRMhv9bSF-19" target="UfEFKGtw3c-eRMhv9bSF-28" edge="1">
          <mxGeometry relative="1" as="geometry" />
        </mxCell>
        <mxCell id="UfEFKGtw3c-eRMhv9bSF-79" value="OpenWeatherAPI" style="whiteSpace=wrap;strokeWidth=2;fontSize=17;" parent="1" vertex="1">
          <mxGeometry x="1305.5" y="23" width="246" height="121" as="geometry" />
        </mxCell>
        <mxCell id="UfEFKGtw3c-eRMhv9bSF-82" style="edgeStyle=orthogonalEdgeStyle;rounded=0;orthogonalLoop=1;jettySize=auto;html=1;exitX=0.5;exitY=1;exitDx=0;exitDy=0;entryX=0.5;entryY=0;entryDx=0;entryDy=0;entryPerimeter=0;endArrow=none;endFill=0;" parent="1" source="UfEFKGtw3c-eRMhv9bSF-23" target="UfEFKGtw3c-eRMhv9bSF-30" edge="1">
          <mxGeometry relative="1" as="geometry" />
        </mxCell>
        <mxCell id="UfEFKGtw3c-eRMhv9bSF-83" style="edgeStyle=orthogonalEdgeStyle;rounded=0;orthogonalLoop=1;jettySize=auto;html=1;exitX=0.75;exitY=1;exitDx=0;exitDy=0;entryX=0.145;entryY=0;entryDx=0;entryDy=2.9;entryPerimeter=0;endArrow=none;endFill=0;" parent="1" source="UfEFKGtw3c-eRMhv9bSF-21" target="UfEFKGtw3c-eRMhv9bSF-29" edge="1">
          <mxGeometry relative="1" as="geometry" />
        </mxCell>
        <mxCell id="UfEFKGtw3c-eRMhv9bSF-84" style="edgeStyle=orthogonalEdgeStyle;rounded=0;orthogonalLoop=1;jettySize=auto;html=1;exitX=0.25;exitY=1;exitDx=0;exitDy=0;entryX=0.855;entryY=0;entryDx=0;entryDy=2.9;entryPerimeter=0;endArrow=none;endFill=0;" parent="1" source="UfEFKGtw3c-eRMhv9bSF-22" target="UfEFKGtw3c-eRMhv9bSF-29" edge="1">
          <mxGeometry relative="1" as="geometry" />
        </mxCell>
        <mxCell id="UfEFKGtw3c-eRMhv9bSF-85" value="" style="swimlane;startSize=0;" parent="1" vertex="1">
          <mxGeometry x="157.5" y="220" width="1552.5" height="760" as="geometry" />
        </mxCell>
        <mxCell id="UfEFKGtw3c-eRMhv9bSF-86" value="&lt;font style=&quot;font-size: 22px;&quot;&gt;System&lt;/font&gt;" style="text;html=1;align=center;verticalAlign=middle;resizable=0;points=[];autosize=1;strokeColor=none;fillColor=none;" parent="UfEFKGtw3c-eRMhv9bSF-85" vertex="1">
          <mxGeometry x="1452.5" y="720" width="100" height="40" as="geometry" />
        </mxCell>
      </root>
    </mxGraphModel>
  </diagram>
</mxfile>
